<?xml version="1.0" encoding="UTF-8"?>
<svg width="491px" height="405px" viewBox="0 0 491 405" version="1.1" xmlns="http://www.w3.org/2000/svg" xmlns:xlink="http://www.w3.org/1999/xlink">
    <!-- Generator: Sketch 50.2 (55047) - http://www.bohemiancoding.com/sketch -->
    <title>arrow-left</title>
    <desc>Created with Sketch.</desc>
    <defs></defs>
    <g id="Site" stroke="none" stroke-width="1" fill="none" fill-rule="evenodd">
        <g id="Service" transform="translate(-1406.000000, -3671.000000)" fill="#000000" fill-rule="nonzero">
            <g id="arrow-left" transform="translate(1651.539716, 3873.221834) scale(-1, 1) rotate(-270.000000) translate(-1651.539716, -3873.221834) translate(1449.539716, 3628.221834)">
                <path d="M394.2,178.7 C407,191.5 407,212.1 394.2,224.9 C387.8,231.3 379.5,234.5 371.1,234.5 C362.7,234.5 354.4,231.3 348,224.9 L234.7,111.5 L234.7,457.3 C234.7,475.3 220.1,490 202,490 C183.9,490 169.3,475.4 169.3,457.3 L169.3,111.5 L56,224.9 C43.2,237.7 22.6,237.7 9.8,224.9 C-3,212.1 -3,191.5 9.8,178.7 L178.9,9.6 C185,3.4 193.3,0 202,0 C210.7,0 219,3.4 225.1,9.6 L394.2,178.7 Z" id="Shape"></path>
            </g>
        </g>
    </g>
</svg>