<svg width="16" height="22" viewBox="0 0 16 22" fill="none" xmlns="http://www.w3.org/2000/svg">
<g id="icon/delete">
<g id="delete-photo">
<path id="Shape" fill-rule="evenodd" clip-rule="evenodd" d="M0.486328 15.8505C0.217773 15.8505 0 15.6381 0 15.376V0H13.3171V15.376C13.3171 15.6381 13.0994 15.8505 12.8308 15.8505H0.486328ZM11.2178 2.6167H9.39404V12.9628H11.2178V2.6167ZM5.74683 2.6167H7.57056V12.9628H5.74683V2.6167ZM3.9231 2.6167H2.09937V12.9628H3.9231V2.6167Z" transform="translate(1.34741 5.51636)" fill="#FF0000"/>
<path id="Shape_2" fill-rule="evenodd" clip-rule="evenodd" d="M12.084 0.474609V2.18091V2.47742V2.77405H15.4834C15.752 2.77405 15.9697 2.98645 15.9697 3.24866V4.44861C15.9697 4.71069 15.752 4.92322 15.4834 4.92322H14.6433H1.32617H0.486328C0.217773 4.92322 0 4.71069 0 4.44861V3.24866C0 2.98645 0.217773 2.77405 0.486328 2.77405H3.88574V2.47742V2.18091V0.474609C3.88574 0.212402 4.10352 0 4.37207 0H11.5977C11.8662 0 12.084 0.212402 12.084 0.474609ZM5.70947 2.67639H10.2603V2.47742V2.18079V1.77954H5.70947V2.18079V2.47742V2.67639Z" transform="translate(0.0212402)" fill="#FF0000"/>
</g>
</g>
</svg>
