<svg width="16" height="12" viewBox="0 0 16 12" fill="none" xmlns="http://www.w3.org/2000/svg">
<path fill-rule="evenodd" clip-rule="evenodd" d="M16 10.2341C16 11.0081 15.3821 11.6364 14.6238 11.6364H1.37622C0.61792 11.6364 0 11.0081 0 10.2341V1.40234C0 0.628418 0.61792 0 1.37622 0H14.6238C15.3821 0 16 0.628418 16 1.40234V10.2341ZM0.723633 1.29578C0.718018 1.33044 0.715332 1.36609 0.715332 1.40234V10.2341C0.715332 10.6029 1.01147 10.9042 1.37622 10.9042H14.6238C14.9885 10.9042 15.2847 10.6029 15.2847 10.2341V1.40234C15.2847 1.36584 15.2817 1.32996 15.2761 1.29504L15.5085 1.08899C15.6584 0.955566 15.6741 0.723389 15.543 0.570923C15.4121 0.418213 15.1875 0.402588 15.0393 0.535889L14.7927 0.754517C14.7388 0.73999 14.6821 0.7323 14.6238 0.7323H1.37622C1.31763 0.7323 1.26074 0.73999 1.20654 0.754639L0.95874 0.534912C0.809814 0.403076 0.584961 0.418457 0.455322 0.570801C0.324463 0.7229 0.340088 0.955078 0.489746 1.08838L0.723633 1.29578ZM0.723633 1.29578L6.99805 6.85864C7.26831 7.09814 7.62769 7.22729 8 7.22729C8.37256 7.22729 8.73193 7.09802 9.00195 6.85803L15.2761 1.29504C15.2344 1.03345 15.0422 0.821533 14.7927 0.754517L8.53369 6.30505C8.24707 6.5592 7.75366 6.55933 7.46631 6.30505L1.20654 0.754639C0.957031 0.821899 0.765137 1.03406 0.723633 1.29578Z" fill="#F17E00"/>
</svg>
