<svg width="18" height="20" viewBox="0 0 18 20" fill="none" xmlns="http://www.w3.org/2000/svg">
<path d="M14.9983 14.1375C14.239 14.1375 13.5594 14.4366 13.0415 14.9083L5.91039 10.7433C5.96186 10.5125 6.00168 10.28 6.00168 10.04C6.00168 9.79996 5.96102 9.5683 5.91039 9.33663L12.961 5.21079C13.4987 5.71079 14.2099 6.02327 14.9983 6.02327C16.6606 6.02327 18 4.68077 18 3.01162C18 1.34582 16.6597 0 14.9983 0C13.3394 0 11.9992 1.34582 11.9992 3.01082C11.9992 3.25414 12.0398 3.48249 12.0905 3.71416L5.03984 7.84331C4.50125 7.34083 3.7909 7.02915 3.00166 7.02915C1.33943 7.02915 0 8.37417 0 10.04C0 11.7058 1.33943 13.0516 3.00166 13.0516C3.79002 13.0516 4.50125 12.7391 5.039 12.2391L12.1576 16.4133C12.1087 16.6258 12.078 16.8475 12.078 17.0683C12.078 18.685 13.39 20 14.9975 20C16.6066 20 17.9194 18.6858 17.9194 17.0683C17.9194 15.4508 16.6075 14.1375 14.9983 14.1375Z" fill="white"/>
</svg>
