<svg width="17" height="17" viewBox="0 0 17 17" fill="none" xmlns="http://www.w3.org/2000/svg">
<path fill-rule="evenodd" clip-rule="evenodd" d="M9.5437 1.10623C11.0193 -0.368378 13.4199 -0.36911 14.8953 1.10623C15.6077 1.81863 16 2.76859 16 3.78226C16 4.79568 15.6077 5.74612 14.8953 6.45804L11.396 9.95731C10.6584 10.6949 9.68921 11.0638 8.72021 11.0638C7.75122 11.0638 6.78223 10.6949 6.04443 9.95731C5.81714 9.73026 5.81714 9.36136 6.04443 9.13406C6.27197 8.90677 6.64038 8.90677 6.86768 9.13406C7.8894 10.1553 9.55127 10.1553 10.573 9.13406L14.0718 5.63455C14.564 5.14236 14.8352 4.48441 14.8352 3.78226C14.8352 3.07986 14.564 2.42191 14.0718 1.92972C13.5796 1.43753 12.9216 1.16629 12.2192 1.16629C11.5171 1.16629 10.8591 1.43753 10.3669 1.92947L7.69116 4.60526C7.46387 4.83255 7.09546 4.83255 6.86792 4.60526C6.64062 4.37796 6.64062 4.00931 6.86792 3.78201L9.5437 1.10623ZM5.63306 14.0735L7.89722 11.8094C8.12451 11.5821 8.49268 11.5821 8.71997 11.8094C8.94727 12.0369 8.94727 12.4053 8.71997 12.6326L6.45581 14.8968C5.7439 15.6092 4.79346 16.0015 3.78003 16.0015C2.76709 16.0015 1.81665 15.6092 1.10474 14.8968C0.392334 14.1848 0 13.2344 0 12.2215C0 11.208 0.392334 10.2576 1.10449 9.54568L4.39795 6.25198C5.87378 4.77664 8.27441 4.77689 9.74927 6.25198C9.97656 6.47928 9.97656 6.84769 9.74927 7.07498C9.52197 7.30252 9.15356 7.30252 8.92603 7.07498C8.43384 6.58304 7.77612 6.3118 7.07397 6.3118C6.37158 6.3118 5.71362 6.58304 5.22144 7.07498L1.92798 10.3684C0.906494 11.3899 0.906494 13.052 1.92798 14.0735C2.42017 14.5657 3.07837 14.8372 3.78052 14.8372C4.48291 14.8372 5.14062 14.5657 5.63306 14.0735Z" transform="translate(0.000976562 0.000244141)" fill="#F17E00"/>
</svg>
