<svg width="14" height="10" viewBox="0 0 14 10" fill="none" xmlns="http://www.w3.org/2000/svg">
<g id="icon/check">
<path id="Mask" d="M0.161538 5.5C0.0538462 5.4 0 5.25 0 5.15C0 5.05 0.0538462 4.9 0.161538 4.8L0.915385 4.1C1.13077 3.9 1.45385 3.9 1.66923 4.1L1.72308 4.15L4.68462 7.1C4.79231 7.2 4.95385 7.2 5.06154 7.1L12.2769 0.15H12.3308C12.5462 -0.05 12.8692 -0.05 13.0846 0.15L13.8385 0.85C14.0538 1.05 14.0538 1.35 13.8385 1.55L5.22308 9.85C5.11538 9.95 5.00769 10 4.84615 10C4.68462 10 4.57692 9.95 4.46923 9.85L0.269231 5.65L0.161538 5.5Z" fill="white"/>
</g>
</svg>
