<svg width="16" height="16" viewBox="0 0 16 16" fill="none" xmlns="http://www.w3.org/2000/svg">
<g id="icon/telephone">
<g id="telephone">
<path id="path-1" fill-rule="evenodd" clip-rule="evenodd" d="M12.2521 8.98206C12.6984 8.98206 13.1198 9.17566 13.4689 9.5376L15.4455 11.5126C15.809 11.871 15.9999 12.2975 15.9999 12.7419C15.9999 13.1827 15.8127 13.6129 15.4562 13.9821C15.3014 14.1433 15.143 14.2975 14.9882 14.4445L14.9382 14.4928C14.7297 14.6935 14.5314 14.8842 14.3583 15.0931C14.3566 15.0967 14.3539 15.0994 14.3512 15.1019C14.3483 15.1047 14.3456 15.1074 14.3439 15.1111C13.7966 15.7025 13.0981 16 12.2665 16C12.1945 16 12.1152 15.9965 12.0397 15.9928C10.8049 15.9139 9.69939 15.4517 8.87151 15.0609C6.70403 14.0179 4.80682 12.5376 3.22967 10.6631C1.93011 9.10754 1.05877 7.65588 0.475516 6.0896C0.237967 5.45166 -0.0716031 4.47668 0.0148227 3.43005C0.0724399 2.78137 0.335135 2.22217 0.796073 1.76343L2.02019 0.534058L2.02727 0.526855C2.38738 0.182739 2.81219 0 3.25139 0C3.6906 0 4.10833 0.182739 4.45745 0.526855C4.69158 0.741943 4.91839 0.971313 5.13421 1.1936C5.24236 1.30823 5.3576 1.42297 5.46917 1.53406L6.45208 2.51257C7.20818 3.26526 7.20818 4.24011 6.45208 4.9928C6.40179 5.04297 6.35125 5.09399 6.30071 5.14514C6.25042 5.19629 6.20013 5.24731 6.14959 5.29749L6.07439 5.37329C5.83172 5.61853 5.58196 5.87097 5.31438 6.11475C5.53387 6.59851 5.83636 7.07532 6.28631 7.6416C7.21526 8.77783 8.18377 9.65588 9.24944 10.3297C9.35393 10.3943 9.47625 10.4552 9.60589 10.5197L9.69622 10.566C9.75774 10.5975 9.82049 10.6295 9.88299 10.6631L11.0207 9.53406C11.3845 9.172 11.8093 8.98206 12.2521 8.98206ZM14.4006 13.6696C14.5248 13.5494 14.6425 13.4354 14.7577 13.3119C15.1252 12.9319 15.1252 12.5555 14.7543 12.1899L12.7704 10.2151L12.7634 10.2079C12.6518 10.0861 12.4679 9.94629 12.2448 9.94629C12.018 9.94629 11.8237 10.0933 11.7011 10.2151L10.4699 11.4409C10.4086 11.5018 10.2216 11.6882 9.92278 11.6882C9.80389 11.6882 9.68865 11.6595 9.56634 11.5986C9.55901 11.595 9.55193 11.5906 9.54485 11.5861C9.53753 11.5815 9.5302 11.5771 9.52312 11.5735C9.41863 11.509 9.29632 11.4481 9.16668 11.3835C9.02264 11.3119 8.87151 11.2366 8.72381 11.1434C7.56805 10.4158 6.52044 9.46594 5.52679 8.24731L5.52312 8.24377C4.976 7.552 4.6159 6.97131 4.36028 6.35486L4.34954 6.32263C4.2846 6.11829 4.22698 5.81726 4.5368 5.50903C4.53899 5.50439 4.54265 5.50134 4.54705 5.4978L4.55462 5.49109C4.86785 5.21155 5.15594 4.9248 5.45843 4.61658C5.52703 4.55042 5.59417 4.48291 5.6618 4.41479L5.768 4.30823C6.14959 3.92834 6.14959 3.57715 5.768 3.19714L4.78509 2.21863C4.72869 2.16077 4.67229 2.10376 4.61639 2.04724C4.55804 1.98816 4.49993 1.92957 4.44305 1.87097C4.22356 1.64514 4.01458 1.43372 3.7951 1.22937L3.78411 1.21863C3.66912 1.104 3.48528 0.967773 3.25848 0.967773C3.07488 0.967773 2.88787 1.05737 2.71136 1.22229L1.48357 2.44446C1.18474 2.74194 1.02288 3.0896 0.986747 3.50903C0.932791 4.16492 1.05511 4.86023 1.39007 5.75269C1.93377 7.21509 2.75457 8.57715 3.98235 10.0502C5.46917 11.8173 7.25848 13.2115 9.29632 14.1936C10.0414 14.5485 11.0351 14.9642 12.1044 15.0323C12.1584 15.0359 12.216 15.0359 12.2699 15.0359C12.8317 15.0359 13.2602 14.853 13.6237 14.4659C13.8469 14.2043 14.0846 13.9713 14.3185 13.7491L14.4006 13.6696Z" fill="#F17E00"/>
</g>
</g>
</svg>
